# xmcd
#
# Track frame offsets:
#	183
#	17545
#	32593
#	49438
#	63573
#	79858
#	94533
#	110180
#	124235
#	144988
#	161953
#	185490
#
# Disc length: 2502 seconds
#
# Revision: 3
# Processed by: cddbd v1.5.2PL0 Copyright (c) Steve Scherf et al.
# Submitted via: audiograbber 1.83.01
#
DISCID=a709c40c
DTITLE=Nitty Gritty Dirt Band - Workin' Band
DYEAR=1988
DGENRE=Country
TTITLE0=Workin' Man (Nowhere To Go)
TTITLE1=I've Been Lookin'
TTITLE2=Soldiier Of Love
TTITLE3=Down That Road Tonight
TTITLE4=Baby Blues
TTITLE5=Corduroy Road
TTITLE6=Johnny O
TTITLE7=Thunder And Lightnin'
TTITLE8=A Lot Like Me
TTITLE9=Living Without You
TTITLE10=Brass Sky
TTITLE11=I've Been Lookin' (repise)
EXTD=
EXTT0=
EXTT1=
EXTT2=
EXTT3=
EXTT4=
EXTT5=
EXTT6=
EXTT7=
EXTT8=
EXTT9=
EXTT10=
EXTT11=
PLAYORDER=
